<svg width="30" height="30" viewBox="0 0 30 30" fill="none" xmlns="http://www.w3.org/2000/svg">
<path d="M18 19.5C18.425 19.5 18.7938 19.3438 19.1063 19.0312C19.4188 18.7188 19.575 18.35 19.575 17.925C19.575 17.5 19.4188 17.1312 19.1063 16.8187C18.7938 16.5062 18.425 16.35 18 16.35C17.575 16.35 17.2063 16.5062 16.8938 16.8187C16.5813 17.1312 16.425 17.5 16.425 17.925C16.425 18.35 16.5813 18.7188 16.8938 19.0312C17.2063 19.3438 17.575 19.5 18 19.5ZM16.875 14.7H19.125C19.125 13.975 19.2 13.4437 19.35 13.1062C19.5 12.7687 19.85 12.325 20.4 11.775C21.15 11.025 21.65 10.4187 21.9 9.95625C22.15 9.49375 22.275 8.95 22.275 8.325C22.275 7.2 21.8813 6.28125 21.0938 5.56875C20.3063 4.85625 19.275 4.5 18 4.5C16.975 4.5 16.0813 4.7875 15.3188 5.3625C14.5563 5.9375 14.025 6.7 13.725 7.65L15.75 8.475C15.975 7.85 16.2812 7.38125 16.6688 7.06875C17.0563 6.75625 17.5 6.6 18 6.6C18.6 6.6 19.0875 6.76875 19.4625 7.10625C19.8375 7.44375 20.025 7.9 20.025 8.475C20.025 8.825 19.925 9.15625 19.725 9.46875C19.525 9.78125 19.175 10.175 18.675 10.65C17.85 11.375 17.3438 11.9437 17.1562 12.3562C16.9688 12.7687 16.875 13.55 16.875 14.7ZM9 24C8.175 24 7.46875 23.7062 6.88125 23.1187C6.29375 22.5312 6 21.825 6 21V3C6 2.175 6.29375 1.46875 6.88125 0.881248C7.46875 0.293749 8.175 -1.90735e-06 9 -1.90735e-06H27C27.825 -1.90735e-06 28.5313 0.293749 29.1188 0.881248C29.7063 1.46875 30 2.175 30 3V21C30 21.825 29.7063 22.5312 29.1188 23.1187C28.5313 23.7062 27.825 24 27 24H9ZM9 21H27V3H9V21ZM3 30C2.175 30 1.46875 29.7063 0.88125 29.1187C0.29375 28.5312 0 27.825 0 27V6H3V27H24V30H3Z" fill="white"/>
</svg>
