<svg width="25" height="24" viewBox="0 0 25 24" fill="none" xmlns="http://www.w3.org/2000/svg">
<path d="M16.495 15.9951L17.9325 10.8076L13.495 7.74512L12.0575 12.9326L16.495 15.9951ZM2.495 21.0264L1.46375 20.5264C0.817917 20.2555 0.380417 19.792 0.15125 19.1357C-0.0779167 18.4795 -0.0466666 17.8285 0.245 17.1826L2.495 12.3076V21.0264ZM7.495 23.7451C6.8075 23.7451 6.21896 23.4951 5.72937 22.9951C5.23979 22.4951 4.995 21.9014 4.995 21.2139V13.7451L8.33875 22.9326C8.40125 23.0785 8.45333 23.2191 8.495 23.3545C8.53667 23.4899 8.60958 23.6201 8.71375 23.7451H7.495ZM13.9325 23.5889C13.2867 23.818 12.6408 23.7868 11.995 23.4951C11.3492 23.2035 10.9117 22.7347 10.6825 22.0889L5.15125 6.80762C4.92208 6.16178 4.95333 5.52116 5.245 4.88574C5.53667 4.25033 6.00542 3.81803 6.65125 3.58887L16.0575 0.151367C16.7033 -0.0777988 17.344 -0.0465488 17.9794 0.245117C18.6148 0.536783 19.0471 1.00553 19.2762 1.65137L24.8387 16.9326C25.0679 17.5785 25.0367 18.2191 24.745 18.8545C24.4533 19.4899 23.9846 19.9222 23.3387 20.1514L13.9325 23.5889ZM13.0575 21.2451L22.495 17.8076L16.9012 2.49512L7.495 5.93262L13.0575 21.2451Z" fill="white"/>
</svg>
