<svg width="20" height="20" viewBox="0 0 20 20" fill="none" xmlns="http://www.w3.org/2000/svg">
<path d="M2.55342 6.25842C3.24706 4.87803 4.31077 3.71763 5.62575 2.9068C6.94073 2.09598 8.45522 1.66664 10.0001 1.66675C12.2459 1.66675 14.1326 2.49258 15.5751 3.83758L13.1859 6.22758C12.3217 5.40175 11.2234 4.98092 10.0001 4.98092C7.82925 4.98092 5.99175 6.44758 5.33758 8.41675C5.17092 8.91675 5.07592 9.45008 5.07592 10.0001C5.07592 10.5501 5.17092 11.0834 5.33758 11.5834C5.99258 13.5534 7.82925 15.0192 10.0001 15.0192C11.1209 15.0192 12.0751 14.7234 12.8217 14.2234C13.2546 13.9384 13.6252 13.5686 13.9111 13.1363C14.197 12.7041 14.3922 12.2183 14.4851 11.7084H10.0001V8.48508H17.8484C17.9467 9.03008 18.0001 9.59842 18.0001 10.1892C18.0001 12.7276 17.0917 14.8642 15.5151 16.3142C14.1367 17.5876 12.2501 18.3334 10.0001 18.3334C8.90561 18.3339 7.82178 18.1186 6.81054 17.7C5.79929 17.2813 4.88046 16.6675 4.10655 15.8936C3.33264 15.1197 2.71883 14.2009 2.30019 13.1896C1.88156 12.1784 1.66631 11.0946 1.66675 10.0001C1.66675 8.65508 1.98842 7.38342 2.55342 6.25842Z" fill="#F59E0B"/>
</svg>
