<svg width="87" height="113" viewBox="0 0 87 113" fill="none" xmlns="http://www.w3.org/2000/svg">
<rect width="66.4369" height="9.63566" rx="4.81783" transform="matrix(-1 0 0 1 75.3525 98.1084)" fill="#F59E0B"/>
<rect width="5.94957" height="113" rx="2.97479" transform="matrix(-1 0 0 1 71.3857 0)" fill="#F59E0B"/>
<rect width="5.94957" height="113" rx="2.97479" transform="matrix(-1 0 0 1 45.6045 0)" fill="#F59E0B"/>
<rect width="5.94957" height="113" rx="2.97479" transform="matrix(-1 0 0 1 18.832 0)" fill="#F59E0B"/>
<rect width="4.37984" height="66.4369" rx="2.18992" transform="matrix(0 -1 -1 0 75.3525 38.5427)" fill="#F59E0B"/>
<rect width="2.62791" height="38.6722" rx="1.31395" transform="matrix(0 -1 -1 0 48.5801 63.9458)" fill="#F59E0B"/>
<rect x="51.5635" y="5.25586" width="8.92436" height="87.5969" rx="4.46218" fill="#F59E0B"/>
<rect x="77.3447" y="19.2715" width="8.92436" height="67.4496" rx="4.46218" fill="#F59E0B"/>
<rect y="30.6589" width="8.92436" height="47.3023" rx="4.46218" fill="#F59E0B"/>
<rect x="25.7812" y="18.3953" width="8.92436" height="69.2016" rx="4.46218" fill="#F59E0B"/>
</svg>
