<svg width="87" height="143" viewBox="0 0 87 143" fill="none" xmlns="http://www.w3.org/2000/svg">
<rect width="66.4369" height="9.63566" rx="4.81783" transform="matrix(-1 0 0 1 75.3528 98.1084)" fill="#F59E0B"/>
<rect width="5.94957" height="113" rx="2.97479" transform="matrix(-1 0 0 1 71.3865 0)" fill="#F59E0B"/>
<rect width="5.94957" height="113" rx="2.97479" transform="matrix(-1 0 0 1 45.6051 0)" fill="#F59E0B"/>
<rect width="5.94957" height="113" rx="2.97479" transform="matrix(-1 0 0 1 18.8319 0)" fill="#F59E0B"/>
<rect width="4.37984" height="66.4369" rx="2.18992" transform="matrix(0 -1 -1 0 75.3528 38.5427)" fill="#F59E0B"/>
<rect width="2.62791" height="38.6722" rx="1.31395" transform="matrix(0 -1 -1 0 48.5798 63.9458)" fill="#F59E0B"/>
<rect x="51.563" y="5.25586" width="8.92436" height="87.5969" rx="4.46218" fill="#F59E0B"/>
<rect x="77.3445" y="19.2715" width="8.92436" height="67.4496" rx="4.46218" fill="#F59E0B"/>
<rect y="30.6589" width="8.92436" height="47.3023" rx="4.46218" fill="#F59E0B"/>
<rect x="25.7815" y="18.3953" width="8.92436" height="69.2016" rx="4.46218" fill="#F59E0B"/>
<path d="M26.9891 140.288C25.7411 140.288 24.5731 140.064 23.4851 139.616C22.4131 139.152 21.4691 138.512 20.6531 137.696C19.8371 136.864 19.1971 135.888 18.7331 134.768C18.2691 133.632 18.0371 132.392 18.0371 131.048C18.0371 129.704 18.2691 128.472 18.7331 127.352C19.1971 126.216 19.8371 125.24 20.6531 124.424C21.4691 123.592 22.4131 122.952 23.4851 122.504C24.5731 122.056 25.7411 121.832 26.9891 121.832C28.2371 121.832 29.3971 122.064 30.4691 122.528C31.5571 122.976 32.5091 123.616 33.3251 124.448C34.1411 125.264 34.7811 126.232 35.2451 127.352C35.7091 128.472 35.9411 129.704 35.9411 131.048C35.9411 132.392 35.7091 133.632 35.2451 134.768C34.7811 135.888 34.1411 136.864 33.3251 137.696C32.5091 138.512 31.5571 139.152 30.4691 139.616C29.3971 140.064 28.2371 140.288 26.9891 140.288ZM26.9891 138.488C28.0291 138.488 28.9731 138.296 29.8211 137.912C30.6851 137.528 31.4291 136.992 32.0531 136.304C32.6771 135.616 33.1571 134.824 33.4931 133.928C33.8451 133.032 34.0211 132.072 34.0211 131.048C34.0211 130.04 33.8451 129.088 33.4931 128.192C33.1571 127.296 32.6771 126.504 32.0531 125.816C31.4291 125.128 30.6851 124.592 29.8211 124.208C28.9731 123.824 28.0291 123.632 26.9891 123.632C25.9491 123.632 24.9971 123.824 24.1331 124.208C23.2851 124.592 22.5491 125.128 21.9251 125.816C21.3011 126.504 20.8131 127.296 20.4611 128.192C20.1251 129.088 19.9571 130.04 19.9571 131.048C19.9571 132.072 20.1251 133.032 20.4611 133.928C20.8131 134.824 21.3011 135.616 21.9251 136.304C22.5491 136.992 23.2931 137.528 24.1571 137.912C25.0211 138.296 25.9651 138.488 26.9891 138.488ZM32.1491 142.16L25.7891 132.848H27.9731L34.3331 142.16H32.1491ZM43.9314 140.288C43.0354 140.288 42.2194 140.08 41.4834 139.664C40.7474 139.232 40.1634 138.64 39.7314 137.888C39.3154 137.12 39.1074 136.24 39.1074 135.248V127.136H40.9074V135.032C40.9074 135.72 41.0434 136.328 41.3154 136.856C41.6034 137.368 41.9954 137.768 42.4914 138.056C43.0034 138.344 43.5874 138.488 44.2434 138.488C44.8994 138.488 45.4834 138.344 45.9954 138.056C46.5074 137.752 46.9074 137.328 47.1954 136.784C47.4834 136.224 47.6274 135.56 47.6274 134.792V127.136H49.4274V140H47.6274V137.504L48.0354 137.6C47.7314 138.432 47.2114 139.088 46.4754 139.568C45.7394 140.048 44.8914 140.288 43.9314 140.288ZM53.1293 140V127.136H54.9293V140H53.1293ZM53.1293 124.76V122.12H54.9293V124.76H53.1293ZM57.2936 140V138.44L65.0456 128.24L65.3816 128.936H57.7016V127.136H66.9656V128.696L59.2376 138.896L58.9016 138.2H67.0136V140H57.2936Z" fill="white"/>
</svg>
