<svg width="30" height="24" viewBox="0 0 30 24" fill="none" xmlns="http://www.w3.org/2000/svg">
<path d="M28 3H25V2C25 1.46957 24.7893 0.960859 24.4142 0.585786C24.0391 0.210714 23.5304 0 23 0H7C6.46957 0 5.96086 0.210714 5.58579 0.585786C5.21071 0.960859 5 1.46957 5 2V3H2C1.46957 3 0.960859 3.21071 0.585786 3.58579C0.210714 3.96086 0 4.46957 0 5V7C0 8.32608 0.526784 9.59785 1.46447 10.5355C1.92876 10.9998 2.47995 11.3681 3.08658 11.6194C3.69321 11.8707 4.34339 12 5 12H5.45625C6.04531 13.8668 7.16846 15.52 8.68688 16.7554C10.2053 17.9908 12.0524 18.7542 14 18.9513V22H11C10.7348 22 10.4804 22.1054 10.2929 22.2929C10.1054 22.4804 10 22.7348 10 23C10 23.2652 10.1054 23.5196 10.2929 23.7071C10.4804 23.8946 10.7348 24 11 24H19C19.2652 24 19.5196 23.8946 19.7071 23.7071C19.8946 23.5196 20 23.2652 20 23C20 22.7348 19.8946 22.4804 19.7071 22.2929C19.5196 22.1054 19.2652 22 19 22H16V18.9475C19.9925 18.5438 23.305 15.7425 24.51 12H25C26.3261 12 27.5979 11.4732 28.5355 10.5355C29.4732 9.59785 30 8.32608 30 7V5C30 4.46957 29.7893 3.96086 29.4142 3.58579C29.0391 3.21071 28.5304 3 28 3ZM5 10C4.20435 10 3.44129 9.68393 2.87868 9.12132C2.31607 8.55871 2 7.79565 2 7V5H5V9C5 9.33333 5.01625 9.66667 5.04875 10H5ZM23 8.8875C23 13.3275 19.4388 16.9675 15.0613 17H15C12.8783 17 10.8434 16.1571 9.34315 14.6569C7.84285 13.1566 7 11.1217 7 9V2H23V8.8875ZM28 7C28 7.79565 27.6839 8.55871 27.1213 9.12132C26.5587 9.68393 25.7956 10 25 10H24.9375C24.9785 9.63058 24.9994 9.25919 25 8.8875V5H28V7Z" fill="#F59E0B"/>
</svg>
