<svg width="30" height="22" viewBox="0 0 30 22" fill="none" xmlns="http://www.w3.org/2000/svg">
<path d="M19.0909 22C16.0455 22 13.4659 20.9344 11.3523 18.8031C9.23864 16.6719 8.18182 14.0708 8.18182 11C8.18182 7.92917 9.23864 5.32812 11.3523 3.19687C13.4659 1.06562 16.0455 0 19.0909 0C22.1364 0 24.7159 1.06562 26.8295 3.19687C28.9432 5.32812 30 7.92917 30 11C30 14.0708 28.9432 16.6719 26.8295 18.8031C24.7159 20.9344 22.1364 22 19.0909 22ZM8.18182 21.6562C5.77273 21.0146 3.80682 19.7083 2.28409 17.7375C0.761364 15.7667 0 13.5208 0 11C0 8.47917 0.761364 6.23333 2.28409 4.2625C3.80682 2.29167 5.77273 0.985416 8.18182 0.34375V3.23125C6.54545 3.80417 5.22727 4.80104 4.22727 6.22187C3.22727 7.64271 2.72727 9.23542 2.72727 11C2.72727 12.7646 3.22727 14.3573 4.22727 15.7781C5.22727 17.199 6.54545 18.1958 8.18182 18.7687V21.6562ZM19.0909 19.25C21.3636 19.25 23.2955 18.4479 24.8864 16.8438C26.4773 15.2396 27.2727 13.2917 27.2727 11C27.2727 8.70833 26.4773 6.76042 24.8864 5.15625C23.2955 3.55208 21.3636 2.75 19.0909 2.75C16.8182 2.75 14.8864 3.55208 13.2955 5.15625C11.7045 6.76042 10.9091 8.70833 10.9091 11C10.9091 13.2917 11.7045 15.2396 13.2955 16.8438C14.8864 18.4479 16.8182 19.25 19.0909 19.25Z" fill="white"/>
</svg>
