<svg width="17" height="17" viewBox="0 0 17 17" fill="none" xmlns="http://www.w3.org/2000/svg">
<path d="M5 13.3334L8.33333 10.7917L11.6667 13.3334L10.4167 9.20841L13.75 6.83341H9.66667L8.33333 2.50008L7 6.83341H2.91667L6.25 9.20841L5 13.3334ZM8.33333 16.6667C7.18056 16.6667 6.09722 16.448 5.08333 16.0105C4.06945 15.573 3.1875 14.9792 2.4375 14.2292C1.6875 13.4792 1.09375 12.5973 0.65625 11.5834C0.21875 10.5695 0 9.48619 0 8.33341C0 7.18064 0.21875 6.0973 0.65625 5.08341C1.09375 4.06952 1.6875 3.18758 2.4375 2.43758C3.1875 1.68758 4.06945 1.09383 5.08333 0.65633C6.09722 0.21883 7.18056 8.01086e-05 8.33333 8.01086e-05C9.48611 8.01086e-05 10.5694 0.21883 11.5833 0.65633C12.5972 1.09383 13.4792 1.68758 14.2292 2.43758C14.9792 3.18758 15.5729 4.06952 16.0104 5.08341C16.4479 6.0973 16.6667 7.18064 16.6667 8.33341C16.6667 9.48619 16.4479 10.5695 16.0104 11.5834C15.5729 12.5973 14.9792 13.4792 14.2292 14.2292C13.4792 14.9792 12.5972 15.573 11.5833 16.0105C10.5694 16.448 9.48611 16.6667 8.33333 16.6667ZM8.33333 15.0001C10.1944 15.0001 11.7708 14.3542 13.0625 13.0626C14.3542 11.7709 15 10.1945 15 8.33341C15 6.4723 14.3542 4.89591 13.0625 3.60425C11.7708 2.31258 10.1944 1.66675 8.33333 1.66675C6.47222 1.66675 4.89583 2.31258 3.60417 3.60425C2.3125 4.89591 1.66667 6.4723 1.66667 8.33341C1.66667 10.1945 2.3125 11.7709 3.60417 13.0626C4.89583 14.3542 6.47222 15.0001 8.33333 15.0001Z" fill="#F59E0B"/>
</svg>
