<svg width="17" height="14" viewBox="0 0 17 14" fill="none" xmlns="http://www.w3.org/2000/svg">
<path d="M5.24167 13.5445C11.5308 13.5445 14.9708 8.33366 14.9708 3.81533C14.9708 3.667 14.9708 3.5195 14.9608 3.37366C15.6301 2.8891 16.2078 2.28918 16.6667 1.602C16.0426 1.87867 15.3805 2.06013 14.7025 2.14033C15.4164 1.71288 15.9506 1.04062 16.2058 0.248665C15.5348 0.646904 14.8006 0.927606 14.035 1.07866C13.5195 0.530136 12.8375 0.16686 12.0947 0.0450859C11.3519 -0.0766887 10.5896 0.0498312 9.92593 0.405056C9.26227 0.76028 8.73423 1.32439 8.42358 2.01005C8.11292 2.6957 8.03697 3.46465 8.2075 4.19783C6.84799 4.1297 5.518 3.77644 4.30387 3.16097C3.08974 2.54551 2.01861 1.6816 1.16 0.625332C0.722765 1.378 0.588824 2.26902 0.785446 3.11697C0.982069 3.96492 1.49447 4.70606 2.21833 5.1895C1.67417 5.17299 1.14197 5.02579 0.666667 4.76033V4.80367C0.666991 5.59308 0.940329 6.35808 1.44033 6.96896C1.94033 7.57984 2.63622 7.99899 3.41 8.15533C2.90651 8.29259 2.37824 8.31255 1.86583 8.21367C2.0843 8.89323 2.50973 9.4875 3.08261 9.91334C3.65548 10.3392 4.34714 10.5753 5.06083 10.5887C4.35195 11.1462 3.5401 11.5586 2.67171 11.8021C1.80332 12.0456 0.895435 12.1155 0 12.0078C1.56384 13.0114 3.38349 13.5437 5.24167 13.5412" fill="#F59E0B"/>
</svg>
